<?xml version="1.0" encoding="utf-8"?>
<!-- Generator: Adobe Illustrator 15.0.0, SVG Export Plug-In . SVG Version: 6.00 Build 0)  -->
<!DOCTYPE svg PUBLIC "-//W3C//DTD SVG 1.1//EN" "http://www.w3.org/Graphics/SVG/1.1/DTD/svg11.dtd">
<svg version="1.1" id="Layer_1" xmlns="http://www.w3.org/2000/svg" xmlns:xlink="http://www.w3.org/1999/xlink" x="0px" y="0px"
	 width="282.044px" height="224px" viewBox="0 0 282.044 224" enable-background="new 0 0 282.044 224" xml:space="preserve">
<g id="Myx3X7_1_">
	<g>
		<path fill-rule="evenodd" clip-rule="evenodd" d="M1.044,0c93.666,0,187.334,0,281,0c0,16.333,0,32.667,0,49
			c-94.001,0-188,0-282,0c0-15.333,0-30.667,0-46C-0.042,1.581-0.121,0.168,1.044,0z"/>
		<path fill-rule="evenodd" clip-rule="evenodd" d="M1.044,86c93.666,0,187.334,0,281,0c0,16.333,0,32.667,0,49
			c-94.001,0-188,0-282,0c0-15.333,0-30.667,0-46C-0.042,87.581-0.121,86.168,1.044,86z"/>
		<path fill-rule="evenodd" clip-rule="evenodd" d="M1.044,175c93.666,0,187.334,0,281,0c0,16.333,0,32.667,0,49
			c-94.001,0-188,0-282,0c0-15.333,0-30.667,0-46C-0.042,176.581-0.121,175.168,1.044,175z"/>
	</g>
</g>
</svg>
